<?xml version="1.0" encoding="UTF-8" standalone="no"?>
<svg
   xmlns:dc="http://purl.org/dc/elements/1.1/"
   xmlns:cc="http://creativecommons.org/ns#"
   xmlns:rdf="http://www.w3.org/1999/02/22-rdf-syntax-ns#"
   xmlns:svg="http://www.w3.org/2000/svg"
   xmlns="http://www.w3.org/2000/svg"
   viewBox="0 0 1242.28 533.55731"
   height="533.55731"
   width="1242.28"
   xml:space="preserve"
   id="svg2"
   version="1.1"><metadata
     id="metadata8"><rdf:RDF><cc:Work
         rdf:about=""><dc:format>image/svg+xml</dc:format><dc:type
           rdf:resource="http://purl.org/dc/dcmitype/StillImage" /></cc:Work></rdf:RDF></metadata><defs
     id="defs6"><clipPath
       id="clipPath18"
       clipPathUnits="userSpaceOnUse"><path
         id="path16"
         d="M 0,400.168 H 931.71 V 0 H 0 Z" /></clipPath><clipPath
       id="clipPath46"
       clipPathUnits="userSpaceOnUse"><path
         id="path44"
         d="m 665.563,345.228 c -12.194,-7.727 -20.196,-18.208 -23.406,-30.574 v 0 c -0.187,-0.724 -1.047,-1.018 -1.624,-0.541 v 0 l -0.769,0.644 c -4.937,4.102 -9.958,7.962 -15.237,6.952 v 0 c -8.529,-1.633 -11.686,-13.554 -12.33,-24.991 v 0 c -2.5,-43.841 13.833,-74.029 27.978,-91.634 v 0 c 16.58,-20.634 36.659,-32.501 49.205,-35.1 v 0 c 3.118,-0.651 6.066,-0.974 8.845,-0.974 v 0 c 12.867,0 22.031,6.977 27.292,20.825 v 0 c 6.245,16.429 -0.952,26.946 -6.738,35.394 v 0 c -0.681,1 -1.357,1.981 -1.993,2.955 v 0 c -0.952,1.464 -1.937,2.941 -2.941,4.437 v 0 c -7.539,11.279 -15.329,22.939 -15.837,39.265 v 0 c -0.018,0.602 -0.022,1.202 -0.022,1.819 v 0 c 0,0.832 0.026,1.681 0.081,2.534 v 0 c 1.927,29.916 29.6,46.182 46.139,55.902 v 0 c 5.606,3.298 9.661,5.68 12.047,8.065 v 0 c 1.86,1.864 2.566,4.629 1.885,7.401 v 0 c -0.955,3.875 -4.304,7.146 -8.749,8.536 v 0 c -7.66,2.389 -17.192,3.672 -27.405,3.672 v 0 c -19.05,0 -40.452,-4.466 -56.421,-14.587 m -19.406,-42.68 c 1.227,0.478 3.368,1.813 3.867,5.386 v 0 c 1.702,12.19 8.558,22.167 20.377,29.659 v 0 c 22.019,13.958 56.749,16.017 76.29,9.926 v 0 c 0.115,-0.037 0.217,-0.07 0.32,-0.111 v 0 c 1.199,-0.448 1.386,-2.051 0.327,-2.768 v 0 c -1.985,-1.334 -4.72,-2.944 -7.716,-4.706 v 0 C 721.543,329.311 691.281,311.518 689.05,276.819 v 0 c -0.07,-1.04 -0.106,-2.088 -0.106,-3.114 v 0 c 0,-0.705 0.014,-1.388 0.032,-2.083 v 0 c 0.581,-18.933 9.492,-32.263 17.351,-44.018 v 0 c 0.989,-1.471 1.952,-2.919 2.89,-4.36 v 0 c 0.676,-1.03 1.378,-2.063 2.102,-3.118 v 0 c 5.305,-7.748 10.316,-15.068 5.751,-27.081 v 0 c -4.835,-12.731 -12.566,-16.981 -25.851,-14.209 v 0 c -15.135,3.136 -33.42,18.737 -43.996,31.909 v 0 c -13.153,16.366 -28.343,44.484 -26.005,85.462 v 0 c 0.588,10.319 2.228,14.263 3.952,15.841 v 0 c 0.775,0.709 1.915,0.808 2.823,0.283 v 0 c 1.813,-1.052 4.419,-3.217 5.996,-4.526 v 0 c 3.731,-3.102 6.823,-5.668 9.999,-5.668 v 0 c 0.713,0 1.434,0.133 2.169,0.411 m 135.281,28.792 c -22.2,-3.232 -65.204,-24.336 -69.327,-52.337 v 0 c -3.192,-21.667 12.465,-39.055 16.134,-44.363 v 0 c 9.657,-13.981 15.244,-25.99 12.123,-43.566 v 0 c -3.374,-18.965 -17.432,-27.453 -24.953,-29.953 v 0 c -2.602,-0.864 -5.522,-2.496 -4.438,-6.143 v 0 c 0.438,-1.474 1.751,-3.345 5.511,-3.926 v 0 c 0.853,-0.128 1.834,-0.198 2.927,-0.198 v 0 c 14.921,0 51.373,11.175 75.25,48.259 v 0 c 26.486,41.147 31.313,99.193 21.637,118.24 v 0 c -4.595,9.05 -13.775,14.582 -27.005,14.582 v 0 c -2.477,0 -5.098,-0.194 -7.859,-0.595 M 740.956,167.778 c 4.356,5.724 7.76,12.874 9.301,21.539 v 0 c 3.65,20.55 -2.856,35.257 -13.752,51.028 v 0 c -0.541,0.787 -1.195,1.654 -1.948,2.65 v 0 c -4.776,6.345 -14.724,19.539 -12.514,34.542 v 0 c 1.386,9.41 9.715,19.538 23.45,28.515 v 0 c 13.462,8.804 28.483,14.054 37.394,15.352 v 0 c 2.241,0.326 4.396,0.488 6.41,0.488 v 0 c 8.915,0 14.988,-3.058 18.053,-9.087 v 0 c 3.258,-6.422 5.07,-22.767 1.765,-44.794 v 0 c -3.525,-23.464 -11.657,-45.999 -22.898,-63.464 v 0 C 774.251,185.964 759.355,175.472 748.963,169.94 v 0 c -2.415,-1.283 -4.783,-2.411 -7.069,-3.39 v 0 c -0.11,-0.047 -0.22,-0.065 -0.327,-0.065 v 0 c -0.603,0 -1.037,0.739 -0.611,1.293" /></clipPath><clipPath
       id="clipPath56"
       clipPathUnits="userSpaceOnUse"><path
         id="path54"
         d="M 0,400.168 H 931.71 V 0 H 0 Z" /></clipPath></defs><g
     transform="matrix(1.3333333,0,0,-1.3333333,0,533.55733)"
     id="g10"><g
       id="g12"><g
         clip-path="url(#clipPath18)"
         id="g14"><g
           transform="translate(217.6687,225.4354)"
           id="g20"><path
             id="path22"
             style="fill:#0b2549;fill-opacity:1;fill-rule:nonzero;stroke:none"
             d="m 0,0 c 0,6.485 -1.331,12.003 -3.996,16.557 -2.661,4.555 -6.985,8.47 -12.966,11.753 -5.981,3.279 -13.951,6.194 -23.909,8.742 -9.723,2.466 -17.039,4.551 -21.939,6.249 -4.904,1.698 -8.161,3.397 -9.782,5.095 -1.622,1.698 -2.434,3.742 -2.434,6.136 0,4.245 2.007,7.543 6.022,9.899 4.01,2.353 9.3,3.338 15.862,2.952 6.867,-0.386 12.366,-2.121 16.498,-5.209 4.129,-3.088 6.54,-7.293 7.235,-12.62 l 28.483,5.095 c -1.081,7.485 -3.938,14.01 -8.569,19.568 -4.629,5.555 -10.709,9.841 -18.234,12.848 -7.525,3.011 -16.153,4.518 -25.876,4.518 -9.959,0 -18.605,-1.562 -25.935,-4.691 -7.334,-3.124 -13.047,-7.583 -17.135,-13.373 -4.095,-5.787 -6.139,-12.58 -6.139,-20.377 0,-6.249 1.349,-11.576 4.055,-15.976 2.698,-4.401 7.139,-8.202 13.315,-11.404 6.172,-3.205 14.51,-6.194 25.009,-8.973 9.414,-2.471 16.399,-4.514 20.953,-6.136 4.555,-1.621 7.507,-3.301 8.86,-5.036 1.349,-1.739 2.025,-4.036 2.025,-6.889 0,-4.632 -1.834,-8.279 -5.499,-10.944 -3.669,-2.661 -8.86,-3.992 -15.572,-3.992 -7.643,0 -13.973,1.776 -18.991,5.323 -5.018,3.551 -8.26,8.415 -9.723,14.591 l -28.483,-4.401 c 2.085,-12.579 7.948,-22.343 17.598,-29.291 9.65,-6.948 22.193,-10.422 37.628,-10.422 16.131,0 28.774,3.592 37.92,10.767 C -4.573,-22.461 0,-12.583 0,0" /></g><g
           transform="translate(336.3404,293.7461)"
           id="g24"><path
             id="path26"
             style="fill:#0b2549;fill-opacity:1;fill-rule:nonzero;stroke:none"
             d="m 0,0 c -4.092,8.257 -10.363,14.201 -18.814,17.829 -8.452,3.628 -18.234,5.441 -29.351,5.441 -14.744,0 -26.457,-3.202 -35.14,-9.61 -8.683,-6.407 -14.568,-14.895 -17.656,-25.471 l 25.472,-7.989 c 2.084,6.408 5.749,10.922 10.999,13.547 5.249,2.625 10.69,3.937 16.325,3.937 9.338,0 15.977,-2.048 19.914,-6.135 3.272,-3.401 5.135,-8.4 5.635,-14.947 -5.036,-0.743 -9.954,-1.456 -14.722,-2.133 -7.915,-1.117 -15.245,-2.334 -21.998,-3.646 -6.757,-1.313 -12.642,-2.779 -17.657,-4.401 -6.639,-2.238 -12.043,-5.113 -16.211,-8.624 -4.165,-3.514 -7.253,-7.683 -9.26,-12.506 -2.008,-4.823 -3.011,-10.245 -3.011,-16.267 0,-6.87 1.599,-13.16 4.805,-18.869 3.201,-5.713 7.929,-10.286 14.182,-13.72 6.253,-3.437 13.896,-5.153 22.924,-5.153 11.271,0 20.667,2.102 28.192,6.311 5.794,3.235 11.018,7.915 15.69,14.01 v -16.848 H 4.746 v 76.761 c 0,5.404 -0.232,10.4 -0.695,14.995 C 3.588,-8.896 2.239,-4.4 0,0 m -25.703,-65.762 c -0.927,-2.856 -2.721,-5.908 -5.382,-9.146 -2.665,-3.243 -6.235,-5.985 -10.713,-8.224 -4.477,-2.238 -9.881,-3.356 -16.208,-3.356 -4.4,0 -8.087,0.695 -11.057,2.084 -2.971,1.39 -5.231,3.261 -6.772,5.614 -1.547,2.356 -2.316,5.077 -2.316,8.164 0,2.702 0.596,5.055 1.794,7.062 1.195,2.007 2.912,3.783 5.154,5.327 2.235,1.544 4.978,2.893 8.22,4.051 3.316,1.081 7.139,2.066 11.462,2.952 4.32,0.886 9.492,1.834 15.513,2.838 3.853,0.64 8.202,1.345 13.036,2.117 -0.048,-2.121 -0.129,-4.536 -0.243,-7.271 -0.191,-4.591 -1.022,-8.665 -2.488,-12.212" /></g><g
           transform="translate(436.2558,287.4934)"
           id="g28"><path
             id="path30"
             style="fill:#0b2549;fill-opacity:1;fill-rule:nonzero;stroke:none"
             d="m 0,0 v 26.049 c -3.706,0.618 -7.525,0.794 -11.462,0.522 -3.937,-0.272 -7.779,-1.004 -11.521,-2.198 -3.742,-1.199 -7.161,-2.838 -10.245,-4.923 -3.629,-2.238 -6.735,-5.076 -9.319,-8.51 -1.177,-1.559 -2.228,-3.202 -3.188,-4.911 v 20.02 H -70.394 V -98.99 h 28.019 v 63.56 c 0,4.786 0.577,9.245 1.735,13.373 1.158,4.129 2.952,7.816 5.386,11.058 2.43,3.242 5.573,5.904 9.437,7.988 3.856,2.316 8.197,3.665 13.024,4.055 C -7.97,1.426 -3.706,1.081 0,0" /></g><g
           transform="translate(462.0717,190.181)"
           id="g32"><path
             id="path34"
             style="fill:#0b2549;fill-opacity:1;fill-rule:nonzero;stroke:none"
             d="m 0,0 c 6.253,-3.434 13.892,-5.154 22.924,-5.154 11.267,0 20.667,2.106 28.192,6.312 5.79,3.235 11.018,7.918 15.69,14.01 V -1.68 h 24.428 v 76.765 c 0,5.4 -0.232,10.399 -0.695,14.991 -0.463,4.591 -1.812,9.091 -4.051,13.488 -4.092,8.26 -10.363,14.2 -18.814,17.829 -8.452,3.628 -18.238,5.444 -29.351,5.444 -14.745,0 -26.457,-3.206 -35.139,-9.609 -8.683,-6.408 -14.569,-14.9 -17.657,-25.472 l 25.472,-7.988 c 2.084,6.403 5.749,10.921 10.999,13.542 5.249,2.625 10.69,3.938 16.325,3.938 9.338,0 15.977,-2.044 19.914,-6.136 3.272,-3.4 5.135,-8.4 5.635,-14.943 C 58.836,79.422 53.918,78.709 49.15,78.037 41.235,76.915 33.905,75.699 27.152,74.386 20.395,73.074 14.51,71.611 9.495,69.99 2.856,67.751 -2.548,64.876 -6.716,61.362 c -4.169,-3.511 -7.257,-7.68 -9.26,-12.503 -2.011,-4.826 -3.011,-10.245 -3.011,-16.267 0,-6.87 1.599,-13.16 4.805,-18.873 C -10.981,8.007 -6.253,3.433 0,0 m 10.131,40 c 1.195,2.007 2.912,3.783 5.151,5.326 2.238,1.544 4.981,2.897 8.219,4.055 3.32,1.077 7.139,2.063 11.463,2.952 4.322,0.886 9.495,1.831 15.516,2.834 3.853,0.644 8.202,1.35 13.036,2.118 -0.048,-2.118 -0.129,-4.536 -0.243,-7.268 -0.195,-4.595 -1.022,-8.664 -2.489,-12.216 -0.926,-2.856 -2.72,-5.903 -5.385,-9.146 -2.662,-3.242 -6.231,-5.984 -10.709,-8.219 -4.477,-2.243 -9.881,-3.36 -16.207,-3.36 -4.401,0 -8.088,0.698 -11.058,2.084 -2.974,1.389 -5.231,3.261 -6.775,5.617 -1.544,2.353 -2.313,5.073 -2.313,8.161 0,2.702 0.596,5.055 1.794,7.062" /></g><g
           transform="translate(665.563,345.2282)"
           id="g36"><path
             id="path38"
             style="fill:#f57c20;fill-opacity:1;fill-rule:nonzero;stroke:none"
             d="m 0,0 c -12.193,-7.727 -20.196,-18.208 -23.406,-30.574 -0.187,-0.724 -1.047,-1.019 -1.625,-0.541 l -0.768,0.644 c -4.937,4.102 -9.959,7.962 -15.237,6.951 -8.529,-1.632 -11.687,-13.554 -12.33,-24.99 -2.5,-43.841 13.833,-74.03 27.979,-91.635 16.579,-20.634 36.658,-32.5 49.205,-35.099 3.117,-0.651 6.065,-0.974 8.844,-0.974 12.867,0 22.031,6.977 27.292,20.825 6.246,16.428 -0.952,26.946 -6.738,35.394 -0.681,0.999 -1.357,1.981 -1.993,2.955 -0.952,1.463 -1.937,2.941 -2.941,4.437 -7.54,11.279 -15.329,22.939 -15.836,39.265 -0.019,0.603 -0.023,1.202 -0.023,1.819 0,0.831 0.026,1.68 0.081,2.533 1.927,29.917 29.6,46.183 46.139,55.903 5.606,3.298 9.661,5.68 12.047,8.065 1.86,1.864 2.566,4.629 1.886,7.4 -0.956,3.875 -4.305,7.147 -8.749,8.536 -7.662,2.39 -17.194,3.673 -27.406,3.673 C 37.371,14.587 15.969,10.12 0,0 m -19.406,-42.68 c 1.228,0.478 3.367,1.813 3.867,5.386 1.702,12.19 8.558,22.167 20.377,29.659 22.02,13.958 56.748,16.017 76.29,9.925 0.114,-0.037 0.217,-0.07 0.32,-0.11 1.198,-0.449 1.386,-2.051 0.327,-2.768 C 79.79,-1.923 77.055,-3.533 74.059,-5.294 55.98,-15.918 25.718,-33.71 23.487,-68.409 c -0.07,-1.04 -0.107,-2.088 -0.107,-3.114 0,-0.705 0.015,-1.389 0.033,-2.084 0.581,-18.932 9.492,-32.261 17.352,-44.018 0.988,-1.47 1.951,-2.919 2.889,-4.36 0.676,-1.029 1.378,-2.062 2.103,-3.117 5.304,-7.749 10.315,-15.068 5.749,-27.082 -4.834,-12.73 -12.565,-16.98 -25.85,-14.208 -15.135,3.136 -33.42,18.737 -43.996,31.909 -13.153,16.366 -28.343,44.484 -26.005,85.462 0.588,10.319 2.228,14.263 3.952,15.84 0.776,0.71 1.915,0.809 2.823,0.283 1.812,-1.051 4.419,-3.216 5.996,-4.525 3.731,-3.103 6.823,-5.668 9.999,-5.668 0.713,0 1.434,0.132 2.169,0.411 m 135.281,28.792 c -22.2,-3.232 -65.203,-24.336 -69.328,-52.337 -3.191,-21.667 12.466,-39.055 16.135,-44.364 9.657,-13.98 15.244,-25.99 12.123,-43.565 -3.374,-18.965 -17.432,-27.453 -24.953,-29.953 -2.603,-0.864 -5.522,-2.496 -4.437,-6.143 0.437,-1.474 1.75,-3.345 5.51,-3.926 0.853,-0.129 1.835,-0.199 2.927,-0.199 14.921,0 51.373,11.176 75.25,48.26 26.486,41.147 31.313,99.193 21.637,118.239 -4.595,9.051 -13.774,14.583 -27.005,14.583 -2.477,0 -5.098,-0.195 -7.859,-0.595 M 75.394,-177.45 c 4.356,5.724 7.76,12.874 9.3,21.539 3.651,20.549 -2.856,35.257 -13.752,51.028 -0.541,0.786 -1.195,1.654 -1.949,2.65 -4.775,6.345 -14.722,19.539 -12.513,34.541 1.386,9.411 9.716,19.539 23.45,28.516 13.462,8.804 28.482,14.053 37.393,15.351 2.243,0.327 4.397,0.489 6.411,0.489 8.915,0 14.988,-3.059 18.054,-9.087 3.257,-6.423 5.069,-22.767 1.765,-44.794 -3.526,-23.464 -11.657,-45.999 -22.899,-63.464 -11.966,-18.583 -26.861,-29.075 -37.254,-34.607 -2.415,-1.283 -4.782,-2.412 -7.069,-3.39 -0.11,-0.047 -0.221,-0.066 -0.327,-0.066 -0.603,0 -1.037,0.739 -0.61,1.294" /></g></g></g><g
       id="g40"><g
         clip-path="url(#clipPath46)"
         id="g42"><path
           id="path48"
           style="fill:#f57c20;fill-opacity:1;fill-rule:nonzero;stroke:none"
           d="M 609.697,359.815 H 825.978 V 150.853 H 609.697 Z" /></g></g><g
       id="g50"><g
         clip-path="url(#clipPath56)"
         id="g52"><g
           transform="translate(177.0534,63.0506)"
           id="g58"><path
             id="path60"
             style="fill:#0b2549;fill-opacity:1;fill-rule:nonzero;stroke:none"
             d="m 0,0 0.047,32.675 c 0,3.813 -1.016,6.801 -3.049,8.961 -2.034,2.158 -4.674,3.238 -7.921,3.238 -1.891,0 -3.688,-0.441 -5.39,-1.323 -1.703,-0.883 -3.09,-2.239 -4.162,-4.068 -1.072,-1.828 -1.608,-4.176 -1.608,-7.045 l -4.444,1.797 c -0.064,3.624 0.685,6.801 2.246,9.529 1.56,2.725 3.696,4.846 6.407,6.359 2.711,1.514 5.769,2.27 9.173,2.27 5.327,0 9.52,-1.624 12.578,-4.871 C 6.935,44.275 8.464,39.94 8.464,34.519 L 8.417,0 Z m -30.5,0 0.048,32.344 c 0,3.877 -1.009,6.934 -3.027,9.174 -2.017,2.237 -4.697,3.356 -8.038,3.356 -3.31,0 -5.99,-1.143 -8.039,-3.428 -2.049,-2.286 -3.073,-5.289 -3.073,-9.008 l -4.445,2.648 c 0,3.31 0.787,6.266 2.364,8.866 1.576,2.601 3.719,4.658 6.431,6.171 2.711,1.514 5.784,2.27 9.221,2.27 3.435,0 6.431,-0.733 8.984,-2.199 2.553,-1.465 4.523,-3.547 5.911,-6.242 1.387,-2.695 2.08,-5.887 2.08,-9.575 L -22.13,0 Z m -30.594,0 v 51.069 h 7.519 V 37.403 h 0.946 V 0 Z" /></g><g
           transform="translate(231.9528,69.6229)"
           id="g62"><path
             id="path64"
             style="fill:#0b2549;fill-opacity:1;fill-rule:nonzero;stroke:none"
             d="m 0,0 c 5.265,0 9.197,1.766 11.798,5.296 2.601,3.53 3.901,8.101 3.901,13.714 0,5.736 -1.308,10.323 -3.925,13.76 C 9.157,36.205 5.233,37.924 0,37.924 c -3.563,0 -6.494,-0.804 -8.795,-2.411 -2.302,-1.609 -4.019,-3.831 -5.154,-6.668 -1.135,-2.837 -1.702,-6.116 -1.702,-9.835 0,-5.739 1.323,-10.341 3.971,-13.808 C -9.032,1.733 -5.139,0 0,0 m 0,-7.991 c -5.076,0 -9.45,1.151 -13.122,3.452 -3.672,2.301 -6.502,5.476 -8.488,9.528 -1.986,4.05 -2.979,8.724 -2.979,14.021 0,5.327 1.009,10.016 3.027,14.067 2.017,4.05 4.87,7.203 8.559,9.457 3.688,2.254 8.022,3.381 13.003,3.381 5.107,0 9.505,-1.151 13.193,-3.452 3.688,-2.301 6.517,-5.469 8.488,-9.504 1.97,-4.036 2.955,-8.686 2.955,-13.949 0,-5.328 -0.993,-10.018 -2.979,-14.069 C 19.671,0.891 16.834,-2.277 13.146,-4.562 9.458,-6.848 5.075,-7.991 0,-7.991" /></g><g
           transform="translate(302.2668,69.3397)"
           id="g66"><path
             id="path68"
             style="fill:#0b2549;fill-opacity:1;fill-rule:nonzero;stroke:none"
             d="m 0,0 c 3.341,0 6.124,0.851 8.346,2.554 2.222,1.702 3.885,4.01 4.989,6.926 1.103,2.916 1.655,6.187 1.655,9.813 0,3.594 -0.552,6.84 -1.655,9.74 -1.104,2.901 -2.774,5.202 -5.013,6.905 -2.238,1.702 -5.091,2.553 -8.558,2.553 -3.31,0 -6.053,-0.812 -8.228,-2.435 -2.175,-1.624 -3.799,-3.886 -4.87,-6.786 -1.073,-2.901 -1.608,-6.226 -1.608,-9.977 0,-3.721 0.527,-7.039 1.584,-9.954 1.056,-2.916 2.687,-5.201 4.894,-6.857 C -6.258,0.827 -3.437,0 0,0 m 1.041,-7.708 c -4.793,0 -8.828,1.19 -12.106,3.57 -3.279,2.38 -5.762,5.604 -7.448,9.67 -1.686,4.067 -2.529,8.654 -2.529,13.761 0,5.138 0.843,9.732 2.529,13.783 1.686,4.051 4.177,7.251 7.471,9.6 3.294,2.347 7.337,3.522 12.13,3.522 4.728,0 8.802,-1.175 12.223,-3.522 3.42,-2.349 6.044,-5.557 7.873,-9.623 1.828,-4.067 2.743,-8.654 2.743,-13.76 0,-5.107 -0.915,-9.702 -2.743,-13.784 C 19.355,1.426 16.731,-1.797 13.311,-4.161 9.89,-6.525 5.8,-7.708 1.041,-7.708 m -23.502,1.419 v 68.092 h 8.464 V 31.304 h -0.945 V -6.289 Z" /></g><path
           id="path70"
           style="fill:#0b2549;fill-opacity:1;fill-rule:nonzero;stroke:none"
           d="m 350.404,114.12 h 8.417 V 63.051 h -8.417 z m 0,17.732 h 8.417 v -8.701 h -8.417 z" /><path
           id="path72"
           style="fill:#0b2549;fill-opacity:1;fill-rule:nonzero;stroke:none"
           d="m 386.814,132.561 h 8.417 V 63.05 h -8.417 z" /><path
           id="path74"
           style="fill:#0b2549;fill-opacity:1;fill-rule:nonzero;stroke:none"
           d="m 423.223,114.12 h 8.417 V 63.051 h -8.417 z m 0,17.732 h 8.417 v -8.701 h -8.417 z" /><g
           transform="translate(487.2008,63.0506)"
           id="g76"><path
             id="path78"
             style="fill:#0b2549;fill-opacity:1;fill-rule:nonzero;stroke:none"
             d="m 0,0 c -3.026,-0.631 -6.014,-0.891 -8.961,-0.78 -2.948,0.11 -5.58,0.709 -7.896,1.797 -2.318,1.087 -4.06,2.796 -5.226,5.129 -1.009,2.018 -1.553,4.059 -1.631,6.125 -0.079,2.064 -0.119,4.405 -0.119,7.022 v 45.962 h 8.417 V 19.671 c 0,-2.081 0.024,-3.862 0.071,-5.344 0.048,-1.481 0.371,-2.759 0.97,-3.83 1.135,-2.017 2.939,-3.2 5.414,-3.546 C -6.486,6.604 -3.5,6.698 0,7.234 Z M -34.188,51.069 H 0 v -6.951 h -34.188 z" /></g><g
           transform="translate(516.1398,40.3533)"
           id="g80"><path
             id="path82"
             style="fill:#0b2549;fill-opacity:1;fill-rule:nonzero;stroke:none"
             d="m 0,0 9.883,26.858 0.142,-7.944 -22.319,54.853 h 8.842 L 14.044,29.648 h -3.026 l 16.408,44.119 h 8.559 L 8.181,0 Z" /></g></g></g></g></svg>